<svg width="94" height="94" viewBox="0 0 94 94" fill="none" xmlns="http://www.w3.org/2000/svg">
<mask id="mask0_15_1166" style="mask-type:alpha" maskUnits="userSpaceOnUse" x="0" y="0" width="94" height="94">
<rect width="94" height="94" fill="#D9D9D9"/>
</mask>
<g mask="url(#mask0_15_1166)">
<circle cx="47" cy="47" r="43" stroke="#25245D" stroke-width="4"/>
<path d="M89 47C89 69.8683 70.7231 88.4682 47.9802 88.9888C46.9038 89.0134 46 89.8856 46 91C46 92.1031 46.9022 93.0134 48.0251 92.9888C72.957 92.4434 93 72.0625 93 47C93 21.9375 72.957 1.55655 48.0251 1.0112C46.9022 0.98664 46 1.89691 46 3C46 4.11436 46.9038 4.98657 47.9802 5.01121C70.7231 5.53182 89 24.1317 89 47Z" fill="#FFAE22" stroke="#FFAE22" stroke-width="2"/>
<path d="M10.6177 67.1166C-0.146472 47.4463 6.47065 22.7508 25.6278 11.0979C26.5478 10.5383 26.8943 9.33108 26.3372 8.36601C25.7856 7.4107 24.5491 7.07351 23.589 7.65621C2.56138 20.4176 -4.69861 47.5123 7.13113 69.0778C7.67128 70.0625 8.91072 70.3887 9.86603 69.8372C10.8311 69.28 11.1346 68.0612 10.6177 67.1166Z" fill="#54D1F1" stroke="#54D1F1" stroke-width="2"/>
<circle cx="47" cy="47" r="29" stroke="#25245D" stroke-width="4"/>
<path d="M35.474 72.0773C21.414 65.7136 15.0644 49.3006 21.0731 35.173C21.4258 34.3436 21.074 33.3495 20.2186 32.9623C19.3734 32.5798 18.361 32.9547 17.9892 33.8264C11.245 49.6389 18.3472 68.019 34.0865 75.1428C49.8258 82.2666 68.3221 75.4727 75.7513 59.9703C76.1609 59.1156 75.7745 58.1076 74.9293 57.7251C74.0739 57.3379 73.0949 57.7296 72.7045 58.542L73.6058 58.9751L72.7045 58.542C66.0556 72.3799 49.5339 78.441 35.474 72.0773Z" fill="#AF2AFF" stroke="#AF2AFF" stroke-width="2"/>
<path d="M46.7964 18.866C60.6837 17.8129 72.9632 27.8822 74.6507 41.7067C74.7564 42.5727 75.5324 43.2364 76.438 43.1468C77.3323 43.0584 78.0005 42.2534 77.8901 41.3413C76.0046 25.7625 62.1667 14.4152 46.5202 15.6177C45.6042 15.6881 44.9457 16.5011 45.0341 17.3954C45.1237 18.301 45.9266 18.932 46.7964 18.866Z" fill="#F89A7E" stroke="#F89A7E" stroke-width="2"/>
<path d="M48 29.7922C57.4395 29.7922 65 37.2294 65 46.2922C65 55.3549 57.4395 62.7922 48 62.7922C38.5605 62.7922 31 55.3549 31 46.2922C31 37.2294 38.5605 29.7922 48 29.7922Z" stroke="#25245D" stroke-width="4"/>
<path d="M62.6084 52.9415C58.9888 60.9386 49.6533 64.5502 41.6178 61.1326C40.9329 60.8413 40.1079 61.1303 39.7855 61.8427C39.4677 62.5449 39.7784 63.3882 40.5057 63.6984C49.9399 67.7222 60.9058 63.485 65.156 54.0945C69.4062 44.7041 65.3528 33.6689 56.1036 29.2364C55.3905 28.8947 54.5519 29.2178 54.2341 29.92C53.9117 30.6324 54.2389 31.4429 54.9099 31.7653C62.7805 35.547 66.228 44.9444 62.6084 52.9415Z" fill="#00AAA0" stroke="#00AAA0" stroke-width="2"/>
<path d="M31.4499 47.2732C30.8178 38.9386 36.8612 31.5687 45.1582 30.556C45.8911 30.4665 46.4566 29.809 46.3803 29.0368C46.305 28.2757 45.6196 27.7051 44.8405 27.7994C35.0559 28.9837 27.9292 37.6746 28.6845 47.5017C28.7446 48.2841 29.4384 48.8445 30.1995 48.7692C30.9717 48.6928 31.5057 48.0095 31.4499 47.2732Z" fill="#FF7A5A" stroke="#FF7A5A" stroke-width="2"/>
</g>
</svg>
