<svg id="svg" width="24" height="24" viewBox="0 0 24 24" fill="none" xmlns="http://www.w3.org/2000/svg">
<g clip-path="url(#clip0_13_960)">
<path d="M12 8.25C11.2583 8.25 10.5333 8.46993 9.91661 8.88199C9.29993 9.29404 8.81928 9.87971 8.53545 10.5649C8.25162 11.2502 8.17736 12.0042 8.32206 12.7316C8.46675 13.459 8.8239 14.1272 9.34835 14.6517C9.8728 15.1761 10.541 15.5333 11.2684 15.6779C11.9958 15.8226 12.7498 15.7484 13.4351 15.4645C14.1203 15.1807 14.706 14.7001 15.118 14.0834C15.5301 13.4667 15.75 12.7417 15.75 12C15.7488 11.0058 15.3533 10.0527 14.6503 9.34966C13.9473 8.64666 12.9942 8.25119 12 8.25ZM12 14.25C11.555 14.25 11.12 14.118 10.75 13.8708C10.38 13.6236 10.0916 13.2722 9.92127 12.861C9.75098 12.4499 9.70642 11.9975 9.79323 11.561C9.88005 11.1246 10.0943 10.7237 10.409 10.409C10.7237 10.0943 11.1246 9.88005 11.561 9.79323C11.9975 9.70642 12.4499 9.75097 12.861 9.92127C13.2722 10.0916 13.6236 10.38 13.8708 10.75C14.118 11.12 14.25 11.555 14.25 12C14.2493 12.5965 14.0121 13.1684 13.5902 13.5902C13.1684 14.0121 12.5965 14.2493 12 14.25Z" fill="currentColor"/>
<path d="M21.75 9.75L19.9306 9.7266C19.7559 9.11904 19.5091 8.53454 19.1957 7.98555L20.4846 6.6966C20.7659 6.4153 20.9239 6.03381 20.9239 5.63602C20.9239 5.23824 20.7659 4.85675 20.4846 4.57545L19.4241 3.51495C19.1425 3.23421 18.7611 3.07656 18.3635 3.07656C17.9659 3.07656 17.5845 3.23421 17.3029 3.51495L15.997 4.7886C15.4455 4.4795 14.8588 4.23777 14.2495 4.0686V2.25C14.249 1.85233 14.0908 1.4711 13.8096 1.18991C13.5284 0.908717 13.1472 0.750516 12.7495 0.75H11.2495C10.8519 0.750516 10.4707 0.908717 10.1895 1.18991C9.90827 1.4711 9.75007 1.85233 9.74955 2.25L9.7266 4.06935C9.11904 4.2441 8.53454 4.49085 7.98555 4.80435L6.6966 3.5154C6.41503 3.23466 6.03364 3.07701 5.63602 3.07701C5.23841 3.07701 4.85702 3.23466 4.57545 3.5154L3.51495 4.5759C3.2337 4.8572 3.0757 5.23869 3.0757 5.63647C3.0757 6.03426 3.2337 6.41575 3.51495 6.69705L4.7886 8.00295C4.4795 8.55452 4.23777 9.14122 4.0686 9.75045H2.25C1.85233 9.75097 1.4711 9.90917 1.18991 10.1904C0.908717 10.4716 0.750516 10.8528 0.75 11.2505V12.7505C0.750516 13.1481 0.908717 13.5293 1.18991 13.8105C1.4711 14.0917 1.85233 14.2499 2.25 14.2505L4.06935 14.2738C4.2441 14.8814 4.49085 15.4659 4.80435 16.0149L3.5154 17.3039C3.23415 17.5851 3.07615 17.9666 3.07615 18.3644C3.07615 18.7622 3.23415 19.1437 3.5154 19.425L4.5759 20.4855C4.85747 20.7662 5.23886 20.9239 5.63647 20.9239C6.03409 20.9239 6.41548 20.7662 6.69705 20.4855L8.00295 19.2119C8.55452 19.521 9.14122 19.7627 9.75045 19.9319V21.75C9.75097 22.1477 9.90917 22.5289 10.1904 22.8101C10.4716 23.0913 10.8528 23.2495 11.2505 23.25H12.7505C13.1481 23.2495 13.5293 23.0913 13.8105 22.8101C14.0917 22.5289 14.2499 22.1477 14.2505 21.75L14.2738 19.9306C14.8814 19.7559 15.4659 19.5091 16.0149 19.1957L17.3039 20.4846C17.5854 20.7653 17.9668 20.923 18.3644 20.923C18.762 20.923 19.1434 20.7653 19.425 20.4846L20.4855 19.4241C20.7668 19.1428 20.9248 18.7613 20.9248 18.3635C20.9248 17.9657 20.7668 17.5842 20.4855 17.3029L19.2119 15.997C19.521 15.4455 19.7627 14.8588 19.9319 14.2495H21.75C22.1477 14.249 22.5289 14.0908 22.8101 13.8096C23.0913 13.5284 23.2495 13.1472 23.25 12.7495V11.2495C23.2494 10.852 23.0911 10.4708 22.8099 10.1898C22.5288 9.90866 22.1476 9.75052 21.75 9.75ZM21.75 12.75H19.9314C19.6028 12.7516 19.2838 12.8609 19.0233 13.0612C18.7628 13.2616 18.5752 13.5418 18.4893 13.8589C18.3479 14.349 18.1508 14.8213 17.9019 15.2666C17.7367 15.5518 17.6701 15.8834 17.7123 16.2103C17.7546 16.5372 17.9033 16.841 18.1354 17.0749L19.4246 18.364L18.364 19.4246L17.0741 18.1346C16.8403 17.9023 16.5365 17.7537 16.2097 17.7116C15.8829 17.6695 15.5514 17.7363 15.2664 17.9017C14.8208 18.1509 14.348 18.348 13.8573 18.4892C13.5405 18.5754 13.2606 18.7632 13.0606 19.0236C12.8606 19.2841 12.7514 19.6029 12.7498 19.9313V21.75H11.2498V19.9314C11.2483 19.6028 11.1389 19.2838 10.9386 19.0233C10.7383 18.7628 10.4581 18.5752 10.1409 18.4893C9.65082 18.3479 9.17855 18.1508 8.7333 17.9019C8.50146 17.7711 8.23991 17.702 7.9737 17.7012C7.77889 17.7009 7.58595 17.7391 7.40596 17.8136C7.22597 17.8882 7.06248 17.9975 6.9249 18.1354L5.6358 19.4246L4.5753 18.364L5.8653 17.0741C6.0972 16.8401 6.24565 16.5363 6.28772 16.2096C6.3298 15.8829 6.26316 15.5515 6.0981 15.2664C5.84896 14.8208 5.65186 14.348 5.5107 13.8573C5.4244 13.5405 5.23666 13.2607 4.97621 13.0607C4.71576 12.8607 4.39696 12.7516 4.0686 12.75H2.25V11.25H4.0686C4.3972 11.2484 4.7162 11.1391 4.97669 10.9388C5.23718 10.7384 5.42477 10.4582 5.5107 10.1411C5.65214 9.65097 5.84923 9.1787 6.0981 8.73345C6.26331 8.44828 6.33 8.11663 6.28787 7.78977C6.24573 7.4629 6.09712 7.15901 5.865 6.92505L4.575 5.63595L5.6355 4.57545L6.9255 5.86545C7.15962 6.09704 7.46337 6.24527 7.78998 6.28733C8.1166 6.3294 8.44799 6.26296 8.73315 6.09825C9.17879 5.8491 9.65159 5.65201 10.1423 5.51085C10.4592 5.42462 10.7391 5.2369 10.9392 4.97641C11.1393 4.71593 11.2484 4.39705 11.25 4.0686V2.25H12.75V4.0686C12.7516 4.3972 12.8609 4.7162 13.0612 4.97669C13.2616 5.23718 13.5418 5.42477 13.8589 5.5107C14.349 5.65214 14.8213 5.84923 15.2666 6.0981C15.5519 6.26271 15.8834 6.32906 16.2101 6.28694C16.5368 6.24483 16.8407 6.09659 17.0749 5.865L18.364 4.5759L19.4246 5.6364L18.1346 6.9264C17.9026 7.16034 17.7542 7.46411 17.7121 7.79081C17.6701 8.11752 17.7367 8.44899 17.9017 8.73405C18.1509 9.17969 18.348 9.65249 18.4892 10.1432C18.5754 10.46 18.7632 10.7399 19.0236 10.9399C19.2841 11.1399 19.6029 11.249 19.9313 11.2506H21.75V12.75Z" fill="currentColor"/>
</g>
<defs>
<clipPath id="clip0_13_960">
<rect width="24" height="24" fill="currentColor"/>
</clipPath>
</defs>
</svg>
