<svg id="svg" width="24" height="24" viewBox="0 0 24 24" fill="none" xmlns="http://www.w3.org/2000/svg">
<g clip-path="url(#clip0_13_922)">
<path d="M4.5 23.25H19.5C20.4942 23.2488 21.4473 22.8533 22.1503 22.1503C22.8533 21.4473 23.2488 20.4942 23.25 19.5V4.5C23.2488 3.5058 22.8533 2.55267 22.1503 1.84966C21.4473 1.14666 20.4942 0.751191 19.5 0.75H4.5C3.5058 0.751191 2.55267 1.14666 1.84966 1.84966C1.14666 2.55267 0.751191 3.5058 0.75 4.5V19.5C0.751191 20.4942 1.14666 21.4473 1.84966 22.1503C2.55267 22.8533 3.5058 23.2488 4.5 23.25ZM2.25 4.5C2.25067 3.90347 2.48794 3.33157 2.90976 2.90976C3.33157 2.48794 3.90347 2.25067 4.5 2.25H19.5C20.0965 2.25067 20.6684 2.48794 21.0902 2.90976C21.5121 3.33157 21.7493 3.90347 21.75 4.5V19.5C21.7493 20.0965 21.5121 20.6684 21.0902 21.0902C20.6684 21.5121 20.0965 21.7493 19.5 21.75H4.5C3.90347 21.7493 3.33157 21.5121 2.90976 21.0902C2.48794 20.6684 2.25067 20.0965 2.25 19.5V4.5Z" fill="currentColor"/>
<path d="M6 18.75C6.59653 18.7493 7.16843 18.5121 7.59024 18.0902C8.01206 17.6684 8.24933 17.0965 8.25 16.5V12C8.25 11.4033 8.01295 10.831 7.59099 10.409C7.16903 9.98705 6.59674 9.75 6 9.75C5.40326 9.75 4.83097 9.98705 4.40901 10.409C3.98705 10.831 3.75 11.4033 3.75 12V16.5C3.75067 17.0965 3.98794 17.6684 4.40976 18.0902C4.83157 18.5121 5.40347 18.7493 6 18.75ZM5.25 12C5.25 11.8011 5.32902 11.6103 5.46967 11.4697C5.61032 11.329 5.80109 11.25 6 11.25C6.19891 11.25 6.38968 11.329 6.53033 11.4697C6.67098 11.6103 6.75 11.8011 6.75 12V16.5C6.75 16.6989 6.67098 16.8897 6.53033 17.0303C6.38968 17.171 6.19891 17.25 6 17.25C5.80109 17.25 5.61032 17.171 5.46967 17.0303C5.32902 16.8897 5.25 16.6989 5.25 16.5V12Z" fill="currentColor"/>
<path d="M12 18.75C12.5965 18.7493 13.1684 18.5121 13.5902 18.0902C14.0121 17.6684 14.2493 17.0965 14.25 16.5V7.5C14.25 6.90326 14.0129 6.33097 13.591 5.90901C13.169 5.48705 12.5967 5.25 12 5.25C11.4033 5.25 10.831 5.48705 10.409 5.90901C9.98705 6.33097 9.75 6.90326 9.75 7.5V16.5C9.75067 17.0965 9.98794 17.6684 10.4098 18.0902C10.8316 18.5121 11.4035 18.7493 12 18.75ZM11.25 7.5C11.25 7.30109 11.329 7.11032 11.4697 6.96967C11.6103 6.82902 11.8011 6.75 12 6.75C12.1989 6.75 12.3897 6.82902 12.5303 6.96967C12.671 7.11032 12.75 7.30109 12.75 7.5V16.5C12.75 16.6989 12.671 16.8897 12.5303 17.0303C12.3897 17.171 12.1989 17.25 12 17.25C11.8011 17.25 11.6103 17.171 11.4697 17.0303C11.329 16.8897 11.25 16.6989 11.25 16.5V7.5Z" fill="currentColor"/>
<path d="M18 18.75C18.5965 18.7493 19.1684 18.5121 19.5902 18.0902C20.0121 17.6684 20.2493 17.0965 20.25 16.5V13.5C20.25 12.9033 20.0129 12.331 19.591 11.909C19.169 11.4871 18.5967 11.25 18 11.25C17.4033 11.25 16.831 11.4871 16.409 11.909C15.9871 12.331 15.75 12.9033 15.75 13.5V16.5C15.7507 17.0965 15.9879 17.6684 16.4098 18.0902C16.8316 18.5121 17.4035 18.7493 18 18.75ZM17.25 13.5C17.25 13.3011 17.329 13.1103 17.4697 12.9697C17.6103 12.829 17.8011 12.75 18 12.75C18.1989 12.75 18.3897 12.829 18.5303 12.9697C18.671 13.1103 18.75 13.3011 18.75 13.5V16.5C18.75 16.6989 18.671 16.8897 18.5303 17.0303C18.3897 17.171 18.1989 17.25 18 17.25C17.8011 17.25 17.6103 17.171 17.4697 17.0303C17.329 16.8897 17.25 16.6989 17.25 16.5V13.5Z" fill="currentColor"/>
</g>
<defs>
<clipPath id="clip0_13_922">
<rect width="24" height="24" fill="currentColor"/>
</clipPath>
</defs>
</svg>
