<svg id="svg" width="24" height="24" viewBox="0 0 24 24" fill="none" xmlns="http://www.w3.org/2000/svg">
<path d="M9.37066 20.1402L10.0328 21.3376C10.2267 21.6897 10.5115 21.9832 10.8575 22.1877C11.2035 22.3921 11.5981 22.5 12 22.5C12.4019 22.5 12.7965 22.3921 13.1425 22.1877C13.4885 21.9832 13.7733 21.6897 13.9673 21.3376L14.7452 19.9306C15.7433 18.2328 16.9135 16.6421 18.2373 15.1839C19.2719 13.9906 19.9425 12.5256 20.1696 10.9627C20.3966 9.3998 20.1706 7.80455 19.5182 6.36623C18.8659 4.92791 17.8147 3.7069 16.4893 2.84805C15.1639 1.9892 13.62 1.52856 12.0407 1.52079C10.4614 1.51302 8.91299 1.95844 7.57921 2.8042C6.24543 3.64996 5.18225 4.86057 4.51581 6.2924C3.84937 7.72423 3.60763 9.31718 3.81928 10.8823C4.03094 12.4473 4.68709 13.9189 5.70991 15.1222C7.09058 16.6718 8.31664 18.3524 9.37066 20.1402ZM5.4 8.3328C5.66835 7.06793 6.29513 5.90704 7.20548 4.9888C8.11582 4.07055 9.27125 3.43376 10.5338 3.1545C11.0106 3.05397 11.4966 3.0032 11.984 3.003C13.2808 3.00436 14.5499 3.37798 15.6406 4.07947C16.7313 4.78095 17.5977 5.78081 18.1368 6.96023C18.676 8.13965 18.8652 9.44905 18.682 10.7329C18.4988 12.0167 17.9509 13.2209 17.1035 14.2024C15.7101 15.7384 14.4799 17.4149 13.4327 19.2048L12.6548 20.6125C12.5903 20.7299 12.4956 20.8277 12.3804 20.8958C12.2652 20.964 12.1338 21 12 21C11.8662 21 11.7348 20.964 11.6196 20.8958C11.5044 20.8277 11.4097 20.7299 11.3453 20.6125L10.6832 19.4143C9.58221 17.539 8.29965 15.7764 6.85396 14.1519C6.18317 13.3575 5.70334 12.4199 5.4513 11.4112C5.19926 10.4024 5.18171 9.34937 5.4 8.3328Z" fill="currentColor"/>
<path d="M12 13.5C12.7417 13.5 13.4667 13.2801 14.0834 12.868C14.7001 12.456 15.1807 11.8703 15.4645 11.1851C15.7484 10.4998 15.8226 9.74584 15.6779 9.01841C15.5333 8.29098 15.1761 7.6228 14.6517 7.09835C14.1272 6.5739 13.459 6.21675 12.7316 6.07206C12.0042 5.92736 11.2502 6.00162 10.5649 6.28545C9.87971 6.56928 9.29404 7.04993 8.88199 7.66661C8.46993 8.2833 8.25 9.00832 8.25 9.75C8.25103 10.7442 8.64645 11.6975 9.34949 12.4005C10.0525 13.1035 11.0058 13.499 12 13.5ZM12 7.5C12.445 7.5 12.88 7.63196 13.25 7.8792C13.62 8.12643 13.9084 8.47783 14.0787 8.88896C14.249 9.3001 14.2936 9.7525 14.2068 10.189C14.12 10.6254 13.9057 11.0263 13.591 11.341C13.2763 11.6557 12.8754 11.87 12.439 11.9568C12.0025 12.0436 11.5501 11.999 11.139 11.8287C10.7278 11.6584 10.3764 11.37 10.1292 11C9.88196 10.63 9.75 10.195 9.75 9.75C9.75067 9.15347 9.98794 8.58157 10.4098 8.15976C10.8316 7.73795 11.4035 7.50068 12 7.5Z" fill="currentColor"/>
</svg>
