<svg id="svg" width="24" height="24" viewBox="0 0 24 24" fill="none" xmlns="http://www.w3.org/2000/svg">
<g clip-path="url(#clip0_13_941)">
<path d="M19.9556 4.04447C19.9458 4.03472 19.9328 4.03172 19.9227 4.02272C17.8049 1.91939 14.9391 0.742366 11.9543 0.750037C8.96949 0.757708 6.10971 1.94945 4.00276 4.06363C1.89581 6.17781 0.713878 9.04166 0.716435 12.0265C0.718992 15.0112 1.90583 17.8731 4.0164 19.9836C6.12697 22.0942 8.98878 23.281 11.9736 23.2836C14.9584 23.2862 17.8222 22.1042 19.9364 19.9973C22.0506 17.8903 23.2423 15.0305 23.25 12.0458C23.2577 9.06097 22.0806 6.19511 19.9773 4.07732C19.9683 4.06727 19.965 4.05422 19.9556 4.04447ZM12.75 2.28797C14.8111 2.44497 16.768 3.25643 18.3354 4.60397L12.75 10.1895V2.28797ZM19.3961 5.66462C20.7436 7.23201 21.5551 9.18897 21.7121 11.25H13.8105L19.3961 5.66462ZM12 21.75C9.47979 21.7509 7.05724 20.7753 5.24089 19.0282C3.42454 17.2811 2.35565 14.8983 2.2586 12.3799C2.16156 9.86159 3.04389 7.40356 4.7204 5.52185C6.39691 3.64014 8.7372 2.48107 11.25 2.28797V12C11.2508 12.1987 11.33 12.389 11.4705 12.5295C11.611 12.67 11.8013 12.7493 12 12.75H21.7121C21.5217 15.1966 20.4164 17.4816 18.6164 19.1497C16.8164 20.8177 14.454 21.7461 12 21.75Z" fill="currentColor"/>
</g>
<defs>
<clipPath id="clip0_13_941">
<rect width="24" height="24" fill="currentColor"/>
</clipPath>
</defs>
</svg>
