<svg id="svg" width="24" height="24" viewBox="0 0 24 24" fill="none" xmlns="http://www.w3.org/2000/svg">
<path d="M19.7344 19.0312H4.26562C3.13828 19.0312 2.07216 18.594 1.26366 17.8001C0.448781 17 0 15.939 0 14.8125C0 13.686 0.448781 12.625 1.26366 11.8249C1.90181 11.1983 2.70047 10.7939 3.56306 10.6512C3.56269 10.6322 3.5625 10.613 3.5625 10.5938C3.5625 7.49213 6.08588 4.96875 9.1875 4.96875C10.3377 4.96875 11.4431 5.31502 12.3841 5.97014C13.0465 6.4313 13.5965 7.02216 14.0054 7.70653C14.6653 7.29717 15.4265 7.07812 16.2188 7.07812C18.3228 7.07812 20.072 8.62622 20.3869 10.6432C21.2687 10.7783 22.0859 11.1861 22.7364 11.8249C23.5512 12.625 24 13.686 24 14.8125C24 15.939 23.5512 17 22.7364 17.8001C21.9278 18.594 20.8617 19.0312 19.7344 19.0312ZM4.26562 12C2.68894 12 1.40625 13.2617 1.40625 14.8125C1.40625 16.3633 2.68894 17.625 4.26562 17.625H19.7344C21.3111 17.625 22.5938 16.3633 22.5938 14.8125C22.5938 13.2617 21.3111 12 19.7344 12H19.0312V11.2969C19.0312 9.74606 17.7696 8.48438 16.2188 8.48438C15.4797 8.48438 14.7806 8.77125 14.2502 9.29217L13.4934 10.0355L13.1036 9.04884C12.462 7.42458 10.9248 6.375 9.1875 6.375C6.86128 6.375 4.96875 8.26753 4.96875 10.5938C4.96875 10.7599 4.99481 10.9382 5.02238 11.1271L5.14833 12H4.26562Z" fill="currentColor"/>
</svg>
