<svg id="svg" width="24" height="24" viewBox="0 0 24 24" fill="none" xmlns="http://www.w3.org/2000/svg">
<g clip-path="url(#clip0_13_951)">
<path d="M4 24H20C21.0605 23.9987 22.0772 23.5769 22.827 22.827C23.5769 22.0772 23.9987 21.0605 24 20V4C23.9987 2.93952 23.5769 1.92285 22.827 1.17298C22.0772 0.423106 21.0605 0.00127029 20 0H4C2.93952 0.00127029 1.92285 0.423106 1.17298 1.17298C0.423106 1.92285 0.00127029 2.93952 0 4V20C0.00127029 21.0605 0.423106 22.0772 1.17298 22.827C1.92285 23.5769 2.93952 23.9987 4 24ZM1.6 4C1.60072 3.3637 1.85381 2.75367 2.30374 2.30374C2.75367 1.85381 3.3637 1.60072 4 1.6H20C20.6363 1.60072 21.2463 1.85381 21.6963 2.30374C22.1462 2.75367 22.3993 3.3637 22.4 4V20C22.3993 20.6363 22.1462 21.2463 21.6963 21.6963C21.2463 22.1462 20.6363 22.3993 20 22.4H4C3.3637 22.3993 2.75367 22.1462 2.30374 21.6963C1.85381 21.2463 1.60072 20.6363 1.6 20V4Z" fill="currentColor"/>
<path d="M5.03375 12.4739L8.22732 15.1553C8.30097 15.2194 8.38907 15.2704 8.48647 15.3056C8.58388 15.3407 8.68865 15.3592 8.79466 15.36C8.90067 15.3607 9.0058 15.3438 9.10392 15.3101C9.20204 15.2764 9.29118 15.2266 9.36614 15.1637C9.44111 15.1007 9.50039 15.0259 9.54053 14.9435C9.58068 14.8611 9.60088 14.7728 9.59996 14.6838C9.59904 14.5948 9.57701 14.5068 9.53517 14.4251C9.49333 14.3433 9.4325 14.2693 9.35625 14.2075L6.72714 12L9.35625 9.79253C9.4325 9.73069 9.49333 9.65672 9.53517 9.57493C9.57701 9.49315 9.59904 9.40519 9.59996 9.31618C9.60088 9.22717 9.58068 9.1389 9.54053 9.05651C9.50039 8.97413 9.44111 8.89928 9.36614 8.83634C9.29118 8.7734 9.20204 8.72362 9.10392 8.68992C9.0058 8.65621 8.90067 8.63925 8.79466 8.64002C8.68865 8.6408 8.58388 8.65929 8.48647 8.69442C8.38907 8.72956 8.30097 8.78062 8.22732 8.84465L5.03375 11.5261C4.88407 11.6518 4.79999 11.8222 4.79999 12C4.79999 12.1778 4.88407 12.3482 5.03375 12.4739Z" fill="currentColor"/>
<path d="M16.7327 8.84465C16.659 8.78062 16.5709 8.72956 16.4735 8.69442C16.3761 8.65929 16.2713 8.6408 16.1653 8.64002C16.0593 8.63925 15.9542 8.65621 15.8561 8.68992C15.7579 8.72362 15.6688 8.7734 15.5938 8.83634C15.5189 8.89928 15.4596 8.97413 15.4194 9.05651C15.3793 9.1389 15.3591 9.22717 15.36 9.31618C15.3609 9.40519 15.383 9.49315 15.4248 9.57493C15.4666 9.65672 15.5275 9.73069 15.6037 9.79253L18.2328 12L15.6037 14.2075C15.5275 14.2693 15.4666 14.3433 15.4248 14.4251C15.383 14.5068 15.3609 14.5948 15.36 14.6838C15.3591 14.7728 15.3793 14.8611 15.4194 14.9435C15.4596 15.0259 15.5189 15.1007 15.5938 15.1637C15.6688 15.2266 15.7579 15.2764 15.8561 15.3101C15.9542 15.3438 16.0593 15.3607 16.1653 15.36C16.2713 15.3592 16.3761 15.3407 16.4735 15.3056C16.5709 15.2704 16.659 15.2194 16.7327 15.1553L19.9262 12.4739C20.0759 12.3482 20.16 12.1778 20.16 12C20.16 11.8222 20.0759 11.6518 19.9262 11.5261L16.7327 8.84465Z" fill="currentColor"/>
<path d="M13.1404 7.22181L10.5846 16.4411C10.5381 16.6089 10.5581 16.7889 10.6403 16.9415C10.7225 17.0941 10.8601 17.2069 11.0229 17.255C11.0802 17.2713 11.1392 17.2797 11.1986 17.28C11.3375 17.2799 11.4725 17.2332 11.5833 17.1469C11.6941 17.0607 11.7746 16.9395 11.8127 16.8019L14.3685 7.58267C14.3952 7.49848 14.405 7.40962 14.3976 7.3214C14.3901 7.23318 14.3655 7.14741 14.3251 7.06923C14.2848 6.99105 14.2295 6.92207 14.1627 6.8664C14.0959 6.81073 14.0189 6.76952 13.9362 6.74524C13.8536 6.72096 13.7671 6.7141 13.6818 6.72508C13.5965 6.73606 13.5143 6.76465 13.44 6.80914C13.3657 6.85363 13.3009 6.91311 13.2494 6.98401C13.1979 7.05492 13.1609 7.1358 13.1404 7.22181Z" fill="currentColor"/>
</g>
<defs>
<clipPath id="clip0_13_951">
<rect width="24" height="24" fill="currentColor"/>
</clipPath>
</defs>
</svg>
