<svg id="svg" width="24" height="24" viewBox="0 0 24 24" fill="none" xmlns="http://www.w3.org/2000/svg">
<g clip-path="url(#clip0_13_943)">
<path d="M4.5 23.25H19.5C20.4942 23.2488 21.4473 22.8533 22.1503 22.1503C22.8533 21.4473 23.2488 20.4942 23.25 19.5V4.5C23.2488 3.5058 22.8533 2.55267 22.1503 1.84966C21.4473 1.14666 20.4942 0.751191 19.5 0.75H4.5C3.5058 0.751191 2.55267 1.14666 1.84966 1.84966C1.14666 2.55267 0.751191 3.5058 0.75 4.5V19.5C0.751191 20.4942 1.14666 21.4473 1.84966 22.1503C2.55267 22.8533 3.5058 23.2488 4.5 23.25ZM2.25 4.5C2.25067 3.90347 2.48794 3.33157 2.90976 2.90976C3.33157 2.48794 3.90347 2.25067 4.5 2.25H19.5C20.0965 2.25067 20.6684 2.48794 21.0902 2.90976C21.5121 3.33157 21.7493 3.90347 21.75 4.5V19.5C21.7493 20.0965 21.5121 20.6684 21.0902 21.0902C20.6684 21.5121 20.0965 21.7493 19.5 21.75H4.5C3.90347 21.7493 3.33157 21.5121 2.90976 21.0902C2.48794 20.6684 2.25067 20.0965 2.25 19.5V4.5Z" fill="currentColor"/>
<path d="M6.21414 12.6L7.77376 13.0456C7.96325 13.8161 8.3599 14.5199 8.92074 15.081C9.48158 15.642 10.1852 16.0388 10.9554 16.2283L11.4008 17.7885C11.4382 17.9186 11.517 18.0331 11.6251 18.1145C11.7333 18.1959 11.865 18.24 12.0003 18.24C12.1357 18.24 12.2674 18.1959 12.3755 18.1145C12.4837 18.0331 12.5624 17.9186 12.5998 17.7885L13.0453 16.2283C13.8154 16.0388 14.5191 15.642 15.0799 15.081C15.6407 14.5199 16.0374 13.8161 16.2269 13.0456L17.7865 12.6C17.9171 12.563 18.032 12.4843 18.1139 12.3759C18.1957 12.2676 18.24 12.1355 18.24 11.9997C18.24 11.8639 18.1957 11.7318 18.1139 11.6234C18.032 11.5151 17.9171 11.4364 17.7865 11.3993L16.2269 10.9544C16.0376 10.1838 15.641 9.47986 15.0801 8.9188C14.5193 8.35774 13.8155 7.96101 13.0453 7.77164L12.5998 6.21148C12.5624 6.08134 12.4837 5.96692 12.3755 5.88548C12.2674 5.80404 12.1357 5.75999 12.0003 5.75999C11.865 5.75999 11.7333 5.80404 11.6251 5.88548C11.517 5.96692 11.4382 6.08134 11.4008 6.21148L10.9548 7.77164C10.1846 7.96113 9.48089 8.35791 8.92004 8.91895C8.3592 9.47999 7.96256 10.1839 7.77313 10.9544L6.21352 11.4C6.08292 11.437 5.96798 11.5157 5.88614 11.6241C5.80429 11.7324 5.76001 11.8645 5.76001 12.0003C5.76001 12.1361 5.80429 12.2682 5.88614 12.3765C5.96798 12.4849 6.08292 12.5636 6.21352 12.6007L6.21414 12.6ZM9.24791 13.4669L10.2461 13.7527L10.5318 14.7512C9.98598 14.4599 9.53909 14.0129 9.24791 13.4669ZM13.467 14.7531L13.7527 13.7546L14.7509 13.4687C14.4597 14.0147 14.0128 14.4618 13.467 14.7531ZM14.7534 10.5331L13.7552 10.2467L13.4695 9.24818C14.0156 9.53932 14.4626 9.98668 14.7534 10.5331ZM12.0003 8.65469L12.6473 10.9225C12.6763 11.0247 12.7309 11.1177 12.8059 11.1928C12.8809 11.268 12.9738 11.3227 13.0758 11.3519L15.3435 11.9984L13.0765 12.6475C12.9745 12.6767 12.8817 12.7315 12.8069 12.8067C12.732 12.8818 12.6775 12.9748 12.6485 13.0768L12.0003 15.344L11.3521 13.0768C11.3232 12.9748 11.2687 12.8818 11.1938 12.8067C11.1189 12.7315 11.0261 12.6767 10.9242 12.6475L8.6565 11.9984L10.9229 11.3507C11.025 11.3215 11.1179 11.2667 11.1929 11.1916C11.2679 11.1165 11.3225 11.0234 11.3515 10.9213L12.0003 8.65469ZM10.533 9.24631L10.2473 10.2448L9.24916 10.5306C9.54034 9.98464 9.98723 9.53759 10.533 9.24631Z" fill="currentColor"/>
<path d="M11.52 2.88H12.48V4.8H11.52V2.88Z" fill="currentColor"/>
<path d="M11.52 19.2H12.48V21.12H11.52V19.2Z" fill="currentColor"/>
<path d="M2.88 11.52H4.8V12.48H2.88V11.52Z" fill="currentColor"/>
<path d="M19.2 11.52H21.12V12.48H19.2V11.52Z" fill="currentColor"/>
</g>
<defs>
<clipPath id="clip0_13_943">
<rect width="24" height="24" fill="currentColor"/>
</clipPath>
</defs>
</svg>
