<svg width="29" height="29" viewBox="0 0 29 29" fill="none" xmlns="http://www.w3.org/2000/svg">
<path d="M28.0202 10.5658C27.9083 10.2202 27.7027 9.91233 27.4263 9.67651C27.1499 9.4407 26.8135 9.28616 26.4546 9.23009L19.0918 8.06084L15.8263 1.13403C15.6721 0.795801 15.4239 0.509053 15.1113 0.307982C14.7987 0.10691 14.4348 0 14.0631 0C13.6914 0 13.3275 0.10691 13.0149 0.307982C12.7022 0.509053 12.454 0.795801 12.2998 1.13403L8.97357 8.11953L1.6712 9.23009C1.31257 9.28651 0.976596 9.44119 0.700559 9.67698C0.424521 9.91277 0.219221 10.2204 0.107448 10.5658C-0.012857 10.9209 -0.0325692 11.3023 0.050493 11.6679C0.133555 12.0335 0.316152 12.3689 0.578073 12.6372L5.89914 18.1684L4.65226 25.783C4.58707 26.1576 4.62955 26.5431 4.77477 26.8945C4.91998 27.246 5.16195 27.549 5.47257 27.7684C5.76699 27.9784 6.11489 28.1005 6.47593 28.1208C6.83697 28.141 7.19635 28.0585 7.51239 27.8828L14.0876 24.2884L20.6153 27.8828C20.9314 28.0583 21.2907 28.1408 21.6517 28.1205C22.0127 28.1003 22.3606 27.9782 22.6551 27.7684C22.9656 27.5491 23.2075 27.2461 23.3527 26.8948C23.4979 26.5434 23.5405 26.1581 23.4754 25.7835L22.2669 18.0298L27.5496 12.6372C27.8117 12.3691 27.9944 12.0336 28.0775 11.668C28.1606 11.3024 28.1407 10.9209 28.0202 10.5658ZM26.2091 11.3247L20.9263 16.7181C20.7044 16.9472 20.5392 17.2252 20.4441 17.5297C20.3491 17.8342 20.3267 18.1567 20.3788 18.4714L21.5196 26.2405L14.9903 22.6452C14.7064 22.4882 14.3873 22.4058 14.0629 22.4058C13.7385 22.4058 13.4194 22.4882 13.1355 22.6452L6.50157 26.0858L7.74845 18.4714C7.80053 18.1566 7.77817 17.8339 7.68317 17.5293C7.58816 17.2247 7.42314 16.9466 7.20132 16.7172L1.91851 11.3247L1.2482 11.9809L1.95507 11.0828L9.2537 9.97316C9.57259 9.9239 9.87436 9.79658 10.1322 9.60253C10.39 9.40848 10.5958 9.15372 10.7314 8.8609L14.0638 1.87465C14.0839 1.87465 14.1077 1.88197 14.1315 1.9324V1.93334L17.3963 8.85922C17.5312 9.15225 17.7366 9.40728 17.9942 9.60154C18.2518 9.79579 18.5534 9.92321 18.8723 9.9724L26.1726 11.083L26.3136 10.1565L26.2091 11.3247Z" fill="white"/>
</svg>
