<svg width="30" height="30" viewBox="0 0 30 30" fill="none" xmlns="http://www.w3.org/2000/svg">
<path d="M11.7133 25.1753L12.541 26.6721C12.7833 27.1121 13.1394 27.4791 13.5719 27.7346C14.0044 27.9902 14.4976 28.125 15 28.125C15.5024 28.125 15.9956 27.9902 16.4281 27.7346C16.8607 27.4791 17.2167 27.1121 17.4591 26.6721L18.4315 24.9133C19.6791 22.791 21.1419 20.8027 22.7966 18.9799C24.0899 17.4883 24.9282 15.6571 25.212 13.7034C25.4958 11.7498 25.2132 9.7557 24.3978 7.9578C23.5824 6.15991 22.2684 4.63364 20.6117 3.56008C18.9549 2.48651 17.025 1.91072 15.0509 1.901C13.0767 1.89129 11.1413 2.44806 9.47403 3.50526C7.80681 4.56247 6.47783 6.07573 5.64478 7.86552C4.81172 9.6553 4.50956 11.6465 4.77412 13.6028C5.03869 15.5592 5.85888 17.3986 7.1374 18.9028C8.86323 20.8397 10.3958 22.9405 11.7133 25.1753ZM6.75002 10.416C7.08545 8.83493 7.86893 7.38382 9.00686 6.23601C10.1448 5.0882 11.5891 4.29222 13.1672 3.94314C13.7633 3.81748 14.3708 3.75401 14.98 3.75376C16.601 3.75547 18.1874 4.2225 19.5508 5.09935C20.9142 5.9762 21.9971 7.22602 22.6711 8.7003C23.345 10.1746 23.5815 11.8113 23.3525 13.4161C23.1236 15.0208 22.4387 16.5261 21.3793 17.7531C19.6377 19.6731 18.0999 21.7686 16.7908 24.006L15.8185 25.7657C15.7379 25.9123 15.6195 26.0346 15.4755 26.1198C15.3315 26.205 15.1673 26.25 15 26.25C14.8327 26.25 14.6685 26.205 14.5245 26.1198C14.3806 26.0346 14.2621 25.9123 14.1816 25.7657L13.354 24.268C11.9778 21.9238 10.3746 19.7205 8.56746 17.6899C7.72898 16.6969 7.12919 15.5249 6.81414 14.264C6.49909 13.0031 6.47715 11.6867 6.75002 10.416Z" fill="white"/>
<path d="M15 16.875C15.9271 16.875 16.8334 16.6001 17.6042 16.085C18.3751 15.5699 18.9759 14.8379 19.3307 13.9813C19.6855 13.1248 19.7783 12.1823 19.5974 11.273C19.4166 10.3637 18.9701 9.5285 18.3146 8.87294C17.659 8.21738 16.8238 7.77094 15.9145 7.59007C15.0052 7.4092 14.0627 7.50203 13.2062 7.85682C12.3496 8.2116 11.6176 8.81241 11.1025 9.58327C10.5874 10.3541 10.3125 11.2604 10.3125 12.1875C10.3138 13.4303 10.8081 14.6218 11.6869 15.5006C12.5657 16.3794 13.7572 16.8737 15 16.875ZM15 9.375C15.5563 9.375 16.1 9.53995 16.5625 9.84899C17.0251 10.158 17.3855 10.5973 17.5984 11.1112C17.8113 11.6251 17.867 12.1906 17.7585 12.7362C17.6499 13.2818 17.3821 13.7829 16.9887 14.1762C16.5954 14.5696 16.0943 14.8374 15.5487 14.946C15.0031 15.0545 14.4376 14.9988 13.9237 14.7859C13.4098 14.573 12.9705 14.2126 12.6615 13.75C12.3525 13.2875 12.1875 12.7438 12.1875 12.1875C12.1883 11.4418 12.4849 10.727 13.0122 10.1997C13.5395 9.67243 14.2543 9.37585 15 9.375Z" fill="white"/>
</svg>
