<svg width="30" height="30" viewBox="0 0 30 30" fill="none" xmlns="http://www.w3.org/2000/svg">
<g clip-path="url(#clip0_24_989)">
<path d="M3.75 14.0625H11.25C11.9957 14.0617 12.7105 13.7651 13.2378 13.2378C13.7651 12.7105 14.0617 11.9957 14.0625 11.25V3.75C14.0617 3.00434 13.7651 2.28946 13.2378 1.76219C12.7105 1.23493 11.9957 0.938344 11.25 0.9375H3.75C3.00434 0.938344 2.28946 1.23493 1.76219 1.76219C1.23493 2.28946 0.938344 3.00434 0.9375 3.75V11.25C0.938344 11.9957 1.23493 12.7105 1.76219 13.2378C2.28946 13.7651 3.00434 14.0617 3.75 14.0625ZM2.8125 3.75C2.8125 3.50136 2.91127 3.2629 3.08709 3.08709C3.2629 2.91127 3.50136 2.8125 3.75 2.8125H11.25C11.4986 2.8125 11.7371 2.91127 11.9129 3.08709C12.0887 3.2629 12.1875 3.50136 12.1875 3.75V11.25C12.1875 11.4986 12.0887 11.7371 11.9129 11.9129C11.7371 12.0887 11.4986 12.1875 11.25 12.1875H3.75C3.50136 12.1875 3.2629 12.0887 3.08709 11.9129C2.91127 11.7371 2.8125 11.4986 2.8125 11.25V3.75Z" fill="white"/>
<path d="M3.75 29.0625H11.25C11.9957 29.0617 12.7105 28.7651 13.2378 28.2378C13.7651 27.7105 14.0617 26.9957 14.0625 26.25V18.75C14.0617 18.0043 13.7651 17.2895 13.2378 16.7622C12.7105 16.2349 11.9957 15.9383 11.25 15.9375H3.75C3.00434 15.9383 2.28946 16.2349 1.76219 16.7622C1.23493 17.2895 0.938344 18.0043 0.9375 18.75V26.25C0.938344 26.9957 1.23493 27.7105 1.76219 28.2378C2.28946 28.7651 3.00434 29.0617 3.75 29.0625ZM2.8125 18.75C2.8125 18.5014 2.91127 18.2629 3.08709 18.0871C3.2629 17.9113 3.50136 17.8125 3.75 17.8125H11.25C11.4986 17.8125 11.7371 17.9113 11.9129 18.0871C12.0887 18.2629 12.1875 18.5014 12.1875 18.75V26.25C12.1875 26.4986 12.0887 26.7371 11.9129 26.9129C11.7371 27.0887 11.4986 27.1875 11.25 27.1875H3.75C3.50136 27.1875 3.2629 27.0887 3.08709 26.9129C2.91127 26.7371 2.8125 26.4986 2.8125 26.25V18.75Z" fill="white"/>
<path d="M26.25 0.9375H18.75C18.0043 0.938344 17.2895 1.23493 16.7622 1.76219C16.2349 2.28946 15.9383 3.00434 15.9375 3.75V11.25C15.9383 11.9957 16.2349 12.7105 16.7622 13.2378C17.2895 13.7651 18.0043 14.0617 18.75 14.0625H26.25C26.9957 14.0617 27.7105 13.7651 28.2378 13.2378C28.7651 12.7105 29.0617 11.9957 29.0625 11.25V3.75C29.0617 3.00434 28.7651 2.28946 28.2378 1.76219C27.7105 1.23493 26.9957 0.938344 26.25 0.9375ZM27.1875 11.25C27.1875 11.4986 27.0887 11.7371 26.9129 11.9129C26.7371 12.0887 26.4986 12.1875 26.25 12.1875H18.75C18.5014 12.1875 18.2629 12.0887 18.0871 11.9129C17.9113 11.7371 17.8125 11.4986 17.8125 11.25V3.75C17.8125 3.50136 17.9113 3.2629 18.0871 3.08709C18.2629 2.91127 18.5014 2.8125 18.75 2.8125H26.25C26.4986 2.8125 26.7371 2.91127 26.9129 3.08709C27.0887 3.2629 27.1875 3.50136 27.1875 3.75V11.25Z" fill="white"/>
<path d="M22.5 15.9375C21.2021 15.9375 19.9333 16.3224 18.8541 17.0435C17.7749 17.7646 16.9337 18.7895 16.437 19.9886C15.9403 21.1878 15.8104 22.5073 16.0636 23.7803C16.3168 25.0533 16.9418 26.2226 17.8596 27.1404C18.7774 28.0582 19.9467 28.6832 21.2197 28.9364C22.4927 29.1896 23.8122 29.0597 25.0114 28.563C26.2105 28.0663 27.2354 27.2251 27.9565 26.1459C28.6776 25.0667 29.0625 23.7979 29.0625 22.5C29.0604 20.7602 28.3683 19.0922 27.1381 17.8619C25.9078 16.6317 24.2398 15.9396 22.5 15.9375ZM22.5 27.1875C21.5729 27.1875 20.6666 26.9126 19.8958 26.3975C19.1249 25.8824 18.5241 25.1504 18.1693 24.2938C17.8145 23.4373 17.7217 22.4948 17.9026 21.5855C18.0834 20.6762 18.5299 19.841 19.1854 19.1854C19.841 18.5299 20.6762 18.0834 21.5855 17.9026C22.4948 17.7217 23.4373 17.8145 24.2938 18.1693C25.1504 18.5241 25.8824 19.1249 26.3975 19.8958C26.9126 20.6666 27.1875 21.5729 27.1875 22.5C27.186 23.7427 26.6917 24.9342 25.8129 25.8129C24.9342 26.6917 23.7427 27.186 22.5 27.1875Z" fill="white"/>
</g>
<defs>
<clipPath id="clip0_24_989">
<rect width="30" height="30" fill="white"/>
</clipPath>
</defs>
</svg>
