<svg id="svg" width="24" height="24" viewBox="0 0 24 24" fill="none" xmlns="http://www.w3.org/2000/svg">
<g clip-path="url(#clip0_13_937)">
<path d="M3.00002 23.25H21C21.1806 23.2501 21.3551 23.185 21.4915 23.0667C21.6279 22.9485 21.7171 22.785 21.7427 22.6062L23.2427 12.1062C23.259 11.9909 23.2483 11.8734 23.2115 11.763C23.1746 11.6525 23.1126 11.5521 23.0303 11.4698L12.5303 0.969773C12.3896 0.82917 12.1989 0.750183 12 0.750183C11.8011 0.750183 11.6104 0.82917 11.4698 0.969773L0.969769 11.4698C0.887469 11.5521 0.825441 11.6525 0.78858 11.763C0.751719 11.8734 0.741034 11.9909 0.757369 12.1062L2.25737 22.6062C2.28293 22.785 2.37212 22.9485 2.50854 23.0667C2.64496 23.185 2.81947 23.2501 3.00002 23.25ZM12 2.56052L21.705 12.2655L20.3496 21.75H3.65042L2.29502 12.2652L12 2.56052Z" fill="currentColor"/>
<path d="M12 17.25C12.7417 17.25 13.4667 17.0301 14.0834 16.618C14.7001 16.206 15.1807 15.6203 15.4645 14.9351C15.7484 14.2498 15.8226 13.4958 15.6779 12.7684C15.5333 12.041 15.1761 11.3728 14.6517 10.8484C14.1272 10.3239 13.459 9.96675 12.7316 9.82206C12.0042 9.67736 11.2502 9.75162 10.5649 10.0355C9.87971 10.3193 9.29404 10.7999 8.88199 11.4166C8.46993 12.0333 8.25 12.7583 8.25 13.5C8.25119 14.4942 8.64666 15.4473 9.34966 16.1503C10.0527 16.8533 11.0058 17.2488 12 17.25ZM12 11.25C12.445 11.25 12.88 11.382 13.25 11.6292C13.62 11.8764 13.9084 12.2278 14.0787 12.639C14.249 13.0501 14.2936 13.5025 14.2068 13.939C14.12 14.3754 13.9057 14.7763 13.591 15.091C13.2763 15.4057 12.8754 15.62 12.439 15.7068C12.0025 15.7936 11.5501 15.749 11.139 15.5787C10.7278 15.4084 10.3764 15.12 10.1292 14.75C9.88196 14.38 9.75 13.945 9.75 13.5C9.75067 12.9035 9.98794 12.3316 10.4098 11.9098C10.8316 11.4879 11.4035 11.2507 12 11.25Z" fill="currentColor"/>
<path d="M9 20.25H15C15.1989 20.25 15.3897 20.171 15.5303 20.0303C15.671 19.8897 15.75 19.6989 15.75 19.5C15.75 19.3011 15.671 19.1103 15.5303 18.9697C15.3897 18.829 15.1989 18.75 15 18.75H9C8.80109 18.75 8.61032 18.829 8.46967 18.9697C8.32902 19.1103 8.25 19.3011 8.25 19.5C8.25 19.6989 8.32902 19.8897 8.46967 20.0303C8.61032 20.171 8.80109 20.25 9 20.25Z" fill="currentColor"/>
</g>
<defs>
<clipPath id="clip0_13_937">
<rect width="24" height="24" fill="currentColor"/>
</clipPath>
</defs>
</svg>
