<svg id="svg" width="24" height="24" viewBox="0 0 24 24" fill="none" xmlns="http://www.w3.org/2000/svg">
<g clip-path="url(#clip0_14_1167)">
<path d="M20.8 14.4004V8.80026C20.8 6.46628 19.8729 4.2279 18.2225 2.57754C16.5722 0.927168 14.3339 0 12 0C9.66609 0 7.42778 0.927168 5.77746 2.57754C4.12714 4.2279 3.2 6.46628 3.2 8.80026V14.4004C2.35131 14.4004 1.53737 14.7376 0.937258 15.3377C0.337142 15.9378 0 16.7518 0 17.6005C0 18.4492 0.337142 19.2632 0.937258 19.8633C1.53737 20.4635 2.35131 20.8006 3.2 20.8006H8.08096C8.26549 21.7038 8.75634 22.5156 9.47046 23.0986C10.1846 23.6816 11.0781 24 12 24C12.9219 24 13.8154 23.6816 14.5295 23.0986C15.2437 22.5156 15.7345 21.7038 15.919 20.8006H20.8C21.6487 20.8006 22.4626 20.4635 23.0627 19.8633C23.6629 19.2632 24 18.4492 24 17.6005C24 16.7518 23.6629 15.9378 23.0627 15.3377C22.4626 14.7376 21.6487 14.4004 20.8 14.4004ZM4.8 8.80026C4.8 6.89064 5.55857 5.05924 6.90883 3.70894C8.25909 2.35864 10.0904 1.60005 12 1.60005C13.9096 1.60005 15.7409 2.35864 17.0912 3.70894C18.4414 5.05924 19.2 6.89064 19.2 8.80026V14.4004H4.8V8.80026ZM12 22.4007C11.5038 22.4 11.0199 22.2459 10.6147 21.9595C10.2094 21.673 9.90276 21.2682 9.73664 20.8006H14.2634C14.0972 21.2682 13.7906 21.673 13.3853 21.9595C12.9801 22.2459 12.4962 22.4 12 22.4007ZM20.8 19.2006H3.2C2.77565 19.2006 2.36869 19.032 2.06863 18.7319C1.76857 18.4319 1.6 18.0249 1.6 17.6005C1.6 17.1762 1.76857 16.7692 2.06863 16.4691C2.36869 16.169 2.77565 16.0005 3.2 16.0005H20.8C21.2243 16.0005 21.6313 16.169 21.9314 16.4691C22.2314 16.7692 22.4 17.1762 22.4 17.6005C22.4 18.0249 22.2314 18.4319 21.9314 18.7319C21.6313 19.032 21.2243 19.2006 20.8 19.2006Z" fill="currentColor"/>
<path d="M15.8516 5.5401C15.3777 4.93032 14.8295 4.38213 14.2198 3.90825C14.1422 3.84595 14.0531 3.7997 13.9575 3.77218C13.8619 3.74466 13.7618 3.73643 13.663 3.74797C13.5642 3.7595 13.4687 3.79057 13.382 3.83937C13.2954 3.88816 13.2193 3.95371 13.1582 4.0322C13.0971 4.11069 13.0522 4.20054 13.0262 4.29654C13.0001 4.39253 12.9934 4.49274 13.0065 4.59135C13.0195 4.68995 13.0521 4.78497 13.1022 4.87088C13.1523 4.95679 13.219 5.03187 13.2985 5.09175C14.6322 6.1282 15.5931 7.57 16.0363 9.19995C16.0799 9.35815 16.1742 9.49766 16.3048 9.59704C16.4354 9.69641 16.595 9.75015 16.7591 9.75C16.8269 9.74993 16.8944 9.7408 16.9598 9.72285C17.1515 9.66982 17.3143 9.54281 17.4124 9.36975C17.5104 9.19669 17.5357 8.99176 17.4827 8.80005C17.159 7.6166 16.6047 6.50875 15.8516 5.5401Z" fill="currentColor"/>
</g>
<defs>
<clipPath id="clip0_14_1167">
<rect width="24" height="24" fill="currentColor"/>
</clipPath>
</defs>
</svg>
