<svg id="svg" width="24" height="24" viewBox="0 0 24 24" fill="none" xmlns="http://www.w3.org/2000/svg">
<g clip-path="url(#clip0_12_903)">
<path d="M3 11.25H9C9.59653 11.2493 10.1684 11.0121 10.5902 10.5902C11.0121 10.1684 11.2493 9.59653 11.25 9V3C11.2493 2.40347 11.0121 1.83157 10.5902 1.40976C10.1684 0.987945 9.59653 0.750675 9 0.75H3C2.40347 0.750675 1.83157 0.987945 1.40976 1.40976C0.987945 1.83157 0.750675 2.40347 0.75 3V9C0.750675 9.59653 0.987945 10.1684 1.40976 10.5902C1.83157 11.0121 2.40347 11.2493 3 11.25ZM2.25 3C2.25 2.80109 2.32902 2.61032 2.46967 2.46967C2.61032 2.32902 2.80109 2.25 3 2.25H9C9.19891 2.25 9.38968 2.32902 9.53033 2.46967C9.67098 2.61032 9.75 2.80109 9.75 3V9C9.75 9.19891 9.67098 9.38968 9.53033 9.53033C9.38968 9.67098 9.19891 9.75 9 9.75H3C2.80109 9.75 2.61032 9.67098 2.46967 9.53033C2.32902 9.38968 2.25 9.19891 2.25 9V3Z" fill="currentColor"/>
<path d="M3 23.25H9C9.59653 23.2493 10.1684 23.0121 10.5902 22.5902C11.0121 22.1684 11.2493 21.5965 11.25 21V15C11.2493 14.4035 11.0121 13.8316 10.5902 13.4098C10.1684 12.9879 9.59653 12.7507 9 12.75H3C2.40347 12.7507 1.83157 12.9879 1.40976 13.4098C0.987945 13.8316 0.750675 14.4035 0.75 15V21C0.750675 21.5965 0.987945 22.1684 1.40976 22.5902C1.83157 23.0121 2.40347 23.2493 3 23.25ZM2.25 15C2.25 14.8011 2.32902 14.6103 2.46967 14.4697C2.61032 14.329 2.80109 14.25 3 14.25H9C9.19891 14.25 9.38968 14.329 9.53033 14.4697C9.67098 14.6103 9.75 14.8011 9.75 15V21C9.75 21.1989 9.67098 21.3897 9.53033 21.5303C9.38968 21.671 9.19891 21.75 9 21.75H3C2.80109 21.75 2.61032 21.671 2.46967 21.5303C2.32902 21.3897 2.25 21.1989 2.25 21V15Z" fill="currentColor"/>
<path d="M21 0.75H15C14.4035 0.750675 13.8316 0.987945 13.4098 1.40976C12.9879 1.83157 12.7507 2.40347 12.75 3V9C12.7507 9.59653 12.9879 10.1684 13.4098 10.5902C13.8316 11.0121 14.4035 11.2493 15 11.25H21C21.5965 11.2493 22.1684 11.0121 22.5902 10.5902C23.0121 10.1684 23.2493 9.59653 23.25 9V3C23.2493 2.40347 23.0121 1.83157 22.5902 1.40976C22.1684 0.987945 21.5965 0.750675 21 0.75ZM21.75 9C21.75 9.19891 21.671 9.38968 21.5303 9.53033C21.3897 9.67098 21.1989 9.75 21 9.75H15C14.8011 9.75 14.6103 9.67098 14.4697 9.53033C14.329 9.38968 14.25 9.19891 14.25 9V3C14.25 2.80109 14.329 2.61032 14.4697 2.46967C14.6103 2.32902 14.8011 2.25 15 2.25H21C21.1989 2.25 21.3897 2.32902 21.5303 2.46967C21.671 2.61032 21.75 2.80109 21.75 3V9Z" fill="currentColor"/>
<path d="M18 12.75C16.9617 12.75 15.9466 13.0579 15.0833 13.6348C14.2199 14.2117 13.547 15.0316 13.1496 15.9909C12.7523 16.9502 12.6483 18.0058 12.8509 19.0242C13.0535 20.0426 13.5535 20.9781 14.2877 21.7123C15.0219 22.4465 15.9574 22.9466 16.9758 23.1491C17.9942 23.3517 19.0498 23.2477 20.0091 22.8504C20.9684 22.453 21.7883 21.7801 22.3652 20.9167C22.9421 20.0534 23.25 19.0384 23.25 18C23.2483 16.6081 22.6947 15.2737 21.7105 14.2895C20.7263 13.3053 19.3919 12.7517 18 12.75ZM18 21.75C17.2583 21.75 16.5333 21.5301 15.9166 21.118C15.2999 20.706 14.8193 20.1203 14.5355 19.4351C14.2516 18.7498 14.1774 17.9958 14.3221 17.2684C14.4668 16.541 14.8239 15.8728 15.3484 15.3483C15.8728 14.8239 16.541 14.4667 17.2684 14.3221C17.9958 14.1774 18.7498 14.2516 19.4351 14.5355C20.1203 14.8193 20.706 15.2999 21.118 15.9166C21.5301 16.5333 21.75 17.2583 21.75 18C21.7488 18.9942 21.3533 19.9473 20.6503 20.6503C19.9473 21.3533 18.9942 21.7488 18 21.75Z" fill="currentColor"/>
</g>
<defs>
<clipPath id="clip0_12_903">
<rect width="24" height="24" fill="currentColor"/>
</clipPath>
</defs>
</svg>
