<svg id="svg" width="24" height="24" viewBox="0 0 24 24" fill="none" xmlns="http://www.w3.org/2000/svg">
<g clip-path="url(#clip0_13_933)">
<path d="M22.785 3.80639C22.204 3.56605 21.6755 3.21446 21.2294 2.77139C20.7861 2.32482 20.434 1.79618 20.1929 1.21499C20.1273 1.08753 20.0279 0.98061 19.9055 0.905957C19.7832 0.831304 19.6426 0.791809 19.4993 0.791809C19.3559 0.791809 19.2154 0.831304 19.093 0.905957C18.9707 0.98061 18.8712 1.08753 18.8057 1.21499C18.5673 1.79687 18.2155 2.32545 17.7707 2.76989C17.3249 3.21379 16.7964 3.56589 16.215 3.80624C16.0776 3.86279 15.96 3.95892 15.8773 4.08241C15.7945 4.20591 15.7504 4.3512 15.7504 4.49984C15.7504 4.64849 15.7945 4.79378 15.8773 4.91727C15.96 5.04076 16.0776 5.13689 16.215 5.19344C16.797 5.43247 17.3258 5.78461 17.7708 6.22946C18.2158 6.67431 18.568 7.20303 18.8072 7.78499C18.8638 7.92243 18.96 8.03994 19.0835 8.1226C19.2071 8.20527 19.3524 8.24936 19.501 8.24928C19.6497 8.2492 19.7949 8.20495 19.9184 8.12215C20.0418 8.03935 20.1379 7.92174 20.1944 7.78424C20.4327 7.20236 20.7846 6.67378 21.2294 6.22934C21.6752 5.78566 22.2037 5.43376 22.785 5.19359C22.9225 5.13704 23.0401 5.04091 23.1228 4.91742C23.2055 4.79393 23.2497 4.64864 23.2497 4.49999C23.2497 4.35135 23.2055 4.20605 23.1228 4.08256C23.0401 3.95907 22.9225 3.86294 22.785 3.80639ZM20.1689 5.17019C19.9239 5.41494 19.6994 5.67949 19.4979 5.96114C19.097 5.39634 18.6046 4.90249 18.041 4.49999C18.3224 4.29895 18.5865 4.07477 18.8306 3.82979C19.0756 3.58508 19.3001 3.32053 19.5015 3.03884C19.7018 3.32082 19.9252 3.58564 20.1695 3.83054C20.4138 4.07507 20.6779 4.29899 20.9591 4.49999C20.6777 4.70103 20.4136 4.92521 20.1695 5.17019H20.1689Z" fill="currentColor"/>
<path d="M12.6944 5.715C12.6378 5.57753 12.5417 5.45997 12.4182 5.37724C12.2947 5.29451 12.1494 5.25034 12.0008 5.25034C11.8521 5.25034 11.7068 5.29451 11.5833 5.37724C11.4599 5.45997 11.3637 5.57753 11.3072 5.715C10.7904 6.97004 10.0301 8.11031 9.07033 9.07C8.11052 10.0297 6.97014 10.7898 5.71503 11.3064C5.57756 11.3629 5.46 11.4591 5.37727 11.5826C5.29454 11.7061 5.25037 11.8514 5.25037 12C5.25037 12.1486 5.29454 12.2939 5.37727 12.4174C5.46 12.5409 5.57756 12.637 5.71503 12.6936C6.97039 13.21 8.11085 13.9702 9.07038 14.9304C10.0309 15.8892 10.7907 17.0298 11.3054 18.2856C11.3619 18.4231 11.4581 18.5406 11.5815 18.6234C11.705 18.7061 11.8503 18.7503 11.999 18.7503C12.1476 18.7503 12.2929 18.7061 12.4164 18.6234C12.5399 18.5406 12.636 18.4231 12.6926 18.2856C13.2093 17.0304 13.9696 15.89 14.9295 14.9302C15.8893 13.9704 17.0298 13.2103 18.285 12.6936C18.4225 12.637 18.5401 12.5409 18.6228 12.4174C18.7055 12.2939 18.7497 12.1486 18.7497 12C18.7497 11.8514 18.7055 11.7061 18.6228 11.5826C18.5401 11.4591 18.4225 11.3629 18.285 11.3064C17.0297 10.79 15.8892 10.0297 14.9297 9.0696C13.9691 8.11101 13.2092 6.9706 12.6944 5.715ZM13.8692 13.8705C13.1422 14.5959 12.5138 15.4138 12 16.303C11.4864 15.4135 10.858 14.5954 10.1309 13.8699C9.40435 13.1431 8.58591 12.5145 7.69638 12C8.58617 11.4859 9.40465 10.8572 10.1309 10.1301C10.8579 9.40447 11.4863 8.58641 12 7.69695C12.5136 8.58649 13.1421 9.40456 13.8692 10.1301C14.5957 10.8568 15.4141 11.4855 16.3037 12C15.4139 12.5141 14.5954 13.1428 13.8692 13.8699V13.8705Z" fill="currentColor"/>
<path d="M22.5 8.25C22.3011 8.25 22.1103 8.32902 21.9697 8.46967C21.829 8.61032 21.75 8.80109 21.75 9V19.5C21.7493 20.0965 21.5121 20.6684 21.0902 21.0902C20.6684 21.5121 20.0965 21.7493 19.5 21.75H4.5C3.90347 21.7493 3.33157 21.5121 2.90976 21.0902C2.48794 20.6684 2.25067 20.0965 2.25 19.5V4.5C2.25067 3.90347 2.48794 3.33157 2.90976 2.90976C3.33157 2.48794 3.90347 2.25067 4.5 2.25H15C15.1989 2.25 15.3897 2.17098 15.5303 2.03033C15.671 1.88968 15.75 1.69891 15.75 1.5C15.75 1.30109 15.671 1.11032 15.5303 0.96967C15.3897 0.829018 15.1989 0.75 15 0.75H4.5C3.50575 0.751032 2.55253 1.14645 1.84949 1.84949C1.14645 2.55253 0.751032 3.50575 0.75 4.5V19.5C0.751032 20.4942 1.14645 21.4475 1.84949 22.1505C2.55253 22.8535 3.50575 23.249 4.5 23.25H19.5C20.4942 23.249 21.4475 22.8535 22.1505 22.1505C22.8535 21.4475 23.249 20.4942 23.25 19.5V9C23.25 8.80109 23.171 8.61032 23.0303 8.46967C22.8897 8.32902 22.6989 8.25 22.5 8.25Z" fill="currentColor"/>
</g>
<defs>
<clipPath id="clip0_13_933">
<rect width="24" height="24" fill="currentColor"/>
</clipPath>
</defs>
</svg>
