<svg id="svg" width="24" height="24" viewBox="0 0 24 24" fill="none" xmlns="http://www.w3.org/2000/svg">
<g clip-path="url(#clip0_13_919)">
<path d="M19.5 0.75H4.5C3.5058 0.751191 2.55267 1.14666 1.84966 1.84966C1.14666 2.55267 0.751191 3.5058 0.75 4.5V19.5C0.751191 20.4942 1.14666 21.4473 1.84966 22.1503C2.55267 22.8533 3.5058 23.2488 4.5 23.25H19.5C20.4942 23.2488 21.4473 22.8533 22.1503 22.1503C22.8533 21.4473 23.2488 20.4942 23.25 19.5V4.5C23.2488 3.5058 22.8533 2.55267 22.1503 1.84966C21.4473 1.14666 20.4942 0.751191 19.5 0.75ZM21.75 19.5C21.7493 20.0965 21.5121 20.6684 21.0902 21.0902C20.6684 21.5121 20.0965 21.7493 19.5 21.75H4.5C3.90347 21.7493 3.33157 21.5121 2.90976 21.0902C2.48794 20.6684 2.25067 20.0965 2.25 19.5V4.5C2.25067 3.90347 2.48794 3.33157 2.90976 2.90976C3.33157 2.48794 3.90347 2.25067 4.5 2.25H19.5C20.0965 2.25067 20.6684 2.48794 21.0902 2.90976C21.5121 3.33157 21.7493 3.90347 21.75 4.5V19.5Z" fill="currentColor"/>
<path d="M19.5 15.75H17.25V10.5C17.25 10.3011 17.171 10.1103 17.0303 9.96967C16.8897 9.82902 16.6989 9.75 16.5 9.75C16.3011 9.75 16.1103 9.82902 15.9697 9.96967C15.829 10.1103 15.75 10.3011 15.75 10.5V15.75H14.25V12C14.25 11.8011 14.171 11.6103 14.0303 11.4697C13.8897 11.329 13.6989 11.25 13.5 11.25C13.3011 11.25 13.1103 11.329 12.9697 11.4697C12.829 11.6103 12.75 11.8011 12.75 12V15.75H11.25V7.5C11.25 7.30109 11.171 7.11032 11.0303 6.96967C10.8897 6.82902 10.6989 6.75 10.5 6.75C10.3011 6.75 10.1103 6.82902 9.96967 6.96967C9.82902 7.11032 9.75 7.30109 9.75 7.5V15.75H8.25V12C8.25 11.8011 8.17098 11.6103 8.03033 11.4697C7.88968 11.329 7.69891 11.25 7.5 11.25C7.30109 11.25 7.11032 11.329 6.96967 11.4697C6.82902 11.6103 6.75 11.8011 6.75 12V15.75H4.5C4.30109 15.75 4.11032 15.829 3.96967 15.9697C3.82902 16.1103 3.75 16.3011 3.75 16.5C3.75 16.6989 3.82902 16.8897 3.96967 17.0303C4.11032 17.171 4.30109 17.25 4.5 17.25H19.5C19.6989 17.25 19.8897 17.171 20.0303 17.0303C20.171 16.8897 20.25 16.6989 20.25 16.5C20.25 16.3011 20.171 16.1103 20.0303 15.9697C19.8897 15.829 19.6989 15.75 19.5 15.75Z" fill="currentColor"/>
</g>
<defs>
<clipPath id="clip0_13_919">
<rect width="24" height="24" fill="currentColor"/>
</clipPath>
</defs>
</svg>
