<svg id="svg" width="24" height="24" viewBox="0 0 24 24" fill="none" xmlns="http://www.w3.org/2000/svg">
<g clip-path="url(#clip0_13_956)">
<path d="M17.2808 9.57C17.7528 8.70503 18.0001 7.73539 18 6.75C18 5.1587 17.3679 3.63258 16.2426 2.50736C15.1174 1.38214 13.5913 0.75 12 0.75C10.4087 0.75 8.88258 1.38214 7.75736 2.50736C6.63214 3.63258 6 5.1587 6 6.75C6.00014 7.73545 6.24771 8.7051 6.72 9.57C4.91766 10.5278 3.40989 11.958 2.35822 13.7073C1.30655 15.4565 0.750625 17.4589 0.75 19.5V22.5C0.75 22.6989 0.829018 22.8897 0.96967 23.0303C1.11032 23.171 1.30109 23.25 1.5 23.25H22.5C22.6989 23.25 22.8897 23.171 23.0303 23.0303C23.171 22.8897 23.25 22.6989 23.25 22.5V19.5C23.2494 17.459 22.6936 15.4567 21.6421 13.7074C20.5906 11.9582 19.0829 10.5279 17.2808 9.57ZM21.75 21.75H2.25V19.5C2.25087 17.6025 2.80525 15.7464 3.84522 14.1593C4.88519 12.5722 6.36557 11.3229 8.10495 10.5645C8.20848 10.5193 8.30044 10.4513 8.37397 10.3656C8.4475 10.2798 8.50068 10.1786 8.52953 10.0694C8.55839 9.96018 8.56217 9.84586 8.5406 9.73499C8.51902 9.62412 8.47265 9.51956 8.40495 9.42915C7.90178 8.76097 7.59481 7.96577 7.51848 7.13282C7.44215 6.29986 7.59948 5.46211 7.97283 4.71361C8.34617 3.96511 8.92074 3.33548 9.63205 2.89538C10.3434 2.45529 11.1633 2.22216 11.9997 2.22216C12.8361 2.22216 13.656 2.45529 14.3673 2.89538C15.0787 3.33548 15.6532 3.96511 16.0266 4.71361C16.3999 5.46211 16.5573 6.29986 16.4809 7.13282C16.4046 7.96577 16.0976 8.76097 15.5944 9.42915C15.5268 9.51956 15.4804 9.62412 15.4588 9.73499C15.4372 9.84586 15.441 9.96018 15.4699 10.0694C15.4987 10.1786 15.5519 10.2798 15.6254 10.3656C15.699 10.4513 15.7909 10.5193 15.8945 10.5645C17.6339 11.3228 19.1144 12.572 20.1545 14.1592C21.1946 15.7463 21.7491 17.6024 21.75 19.5V21.75Z" fill="currentColor"/>
<path d="M13.5 18.75H6C5.80109 18.75 5.61032 18.829 5.46967 18.9697C5.32902 19.1103 5.25 19.3011 5.25 19.5C5.25 19.6989 5.32902 19.8897 5.46967 20.0303C5.61032 20.171 5.80109 20.25 6 20.25H13.5C13.6989 20.25 13.8897 20.171 14.0303 20.0303C14.171 19.8897 14.25 19.6989 14.25 19.5C14.25 19.3011 14.171 19.1103 14.0303 18.9697C13.8897 18.829 13.6989 18.75 13.5 18.75Z" fill="currentColor"/>
<path d="M18 18.75H16.5C16.3011 18.75 16.1103 18.829 15.9697 18.9697C15.829 19.1103 15.75 19.3011 15.75 19.5C15.75 19.6989 15.829 19.8897 15.9697 20.0303C16.1103 20.171 16.3011 20.25 16.5 20.25H18C18.1989 20.25 18.3897 20.171 18.5303 20.0303C18.671 19.8897 18.75 19.6989 18.75 19.5C18.75 19.3011 18.671 19.1103 18.5303 18.9697C18.3897 18.829 18.1989 18.75 18 18.75Z" fill="currentColor"/>
</g>
<defs>
<clipPath id="clip0_13_956">
<rect width="24" height="24" fill="currentColor"/>
</clipPath>
</defs>
</svg>
