<svg id="svg" width="24" height="24" viewBox="0 0 24 24" fill="none" xmlns="http://www.w3.org/2000/svg">
<g clip-path="url(#clip0_13_927)">
<path d="M23.1651 9.20295C23.0756 8.92642 22.9111 8.68014 22.69 8.49148C22.4689 8.30283 22.1998 8.17921 21.9126 8.13435L16.0224 7.19895L13.41 1.6575C13.2867 1.38692 13.0881 1.15752 12.838 0.99666C12.5879 0.835803 12.2968 0.750275 11.9994 0.750275C11.7021 0.750275 11.411 0.835803 11.1608 0.99666C10.9107 1.15752 10.7122 1.38692 10.5888 1.6575L7.92782 7.2459L2.08592 8.13435C1.79902 8.17948 1.53024 8.30323 1.30941 8.49186C1.08858 8.68049 0.924339 8.92663 0.834921 9.20295C0.738677 9.487 0.722907 9.79214 0.789357 10.0846C0.855807 10.3771 1.00188 10.6454 1.21142 10.86L5.46827 15.285L4.47077 21.3766C4.41862 21.6764 4.45261 21.9847 4.56877 22.2659C4.68494 22.5471 4.87853 22.7895 5.12702 22.965C5.36255 23.133 5.64087 23.2307 5.9297 23.2469C6.21854 23.2631 6.50604 23.1971 6.75887 23.0565L12.0191 20.181L17.2412 23.0565C17.494 23.1969 17.7815 23.2629 18.0703 23.2467C18.3591 23.2305 18.6374 23.1328 18.873 22.965C19.1214 22.7895 19.315 22.5472 19.4311 22.2661C19.5473 21.985 19.5813 21.6767 19.5293 21.3771L18.5625 15.1741L22.7886 10.86C22.9983 10.6455 23.1445 10.3772 23.211 10.0847C23.2774 9.79216 23.2616 9.48698 23.1651 9.20295ZM21.7163 9.81L17.49 14.1247C17.3125 14.308 17.1803 14.5304 17.1043 14.774C17.0282 15.0176 17.0103 15.2756 17.052 15.5274L17.9646 21.7426L12.7412 18.8664C12.5141 18.7408 12.2588 18.6749 11.9993 18.6749C11.7397 18.6749 11.4845 18.7408 11.2574 18.8664L5.95022 21.6189L6.94772 15.5274C6.98939 15.2755 6.9715 15.0174 6.89549 14.7737C6.81949 14.53 6.68747 14.3075 6.51002 14.124L2.28377 9.81L1.74752 10.335L2.31302 9.6165L8.15192 8.7288C8.40704 8.68939 8.64845 8.58754 8.8547 8.4323C9.06094 8.27706 9.22562 8.07325 9.33407 7.839L12 2.25C12.0161 2.25 12.0351 2.25585 12.0542 2.2962V2.29695L14.666 7.83765C14.7739 8.07207 14.9383 8.2761 15.1443 8.4315C15.3504 8.58691 15.5917 8.68884 15.8468 8.7282L21.687 9.61665L21.7998 8.8755L21.7163 9.81Z" fill="currentColor"/>
</g>
<defs>
<clipPath id="clip0_13_927">
<rect width="24" height="24" fill="currentColor"/>
</clipPath>
</defs>
</svg>
