<svg id="svg" width="24" height="24" viewBox="0 0 24 24" fill="none" xmlns="http://www.w3.org/2000/svg">
<g clip-path="url(#clip0_13_917)">
<path d="M12 0.750015C9.9823 0.746669 8.00092 1.28694 6.26417 2.31405C4.52742 3.34116 3.09944 4.81716 2.13031 6.58692C1.16119 8.35668 0.686718 10.3548 0.756773 12.3714C0.826828 14.3879 1.43882 16.3483 2.52843 18.0465C2.5446 18.0778 2.56294 18.1078 2.58333 18.1365C3.64729 19.7689 5.11712 21.0968 6.84877 21.9901C8.58041 22.8834 10.5145 23.3115 12.4613 23.2323C14.4082 23.1532 16.3011 22.5696 17.9546 21.5386C19.608 20.5077 20.9652 19.0649 21.8931 17.3516C22.8211 15.6382 23.288 13.7132 23.248 11.7651C23.208 9.81703 22.6626 7.91276 21.6651 6.23894C20.6677 4.56511 19.2524 3.17917 17.5581 2.21695C15.8638 1.25472 13.9485 0.749228 12 0.750015ZM12 21.75C10.4883 21.7487 8.99769 21.3951 7.64637 20.7175C6.29506 20.0398 5.12022 19.0566 4.21503 17.8458L9.00003 13.0605L11.4698 15.5303C11.6104 15.6709 11.8012 15.7499 12 15.7499C12.1989 15.7499 12.3896 15.6709 12.5303 15.5303L17.25 10.8105V13.5C17.25 13.6989 17.329 13.8897 17.4697 14.0303C17.6103 14.171 17.8011 14.25 18 14.25C18.1989 14.25 18.3897 14.171 18.5304 14.0303C18.671 13.8897 18.75 13.6989 18.75 13.5V9.00002C18.7493 8.80133 18.67 8.611 18.5295 8.47051C18.389 8.33002 18.1987 8.25077 18 8.25002H13.5C13.3011 8.25002 13.1103 8.32903 12.9697 8.46969C12.829 8.61034 12.75 8.8011 12.75 9.00002C12.75 9.19893 12.829 9.38969 12.9697 9.53035C13.1103 9.671 13.3011 9.75002 13.5 9.75002H16.1895L12 13.9395L9.53028 11.4698C9.38696 11.3343 9.19724 11.2588 9.00003 11.2588C8.80282 11.2588 8.61309 11.3343 8.46978 11.4698L3.38568 16.5548C2.39119 14.6714 2.04104 12.5141 2.38879 10.4128C2.73653 8.31156 3.76302 6.38208 5.31125 4.91949C6.85948 3.4569 8.84419 2.54174 10.9618 2.314C13.0794 2.08625 15.2133 2.55846 17.0372 3.65839C18.861 4.75832 20.2743 6.42542 21.0609 8.40467C21.8475 10.3839 21.9641 12.5664 21.3928 14.6181C20.8215 16.6699 19.5939 18.4781 17.8976 19.7661C16.2013 21.054 14.1299 21.7509 12 21.75Z" fill="currentColor"/>
</g>
<defs>
<clipPath id="clip0_13_917">
<rect width="24" height="24" fill="currentColor"/>
</clipPath>
</defs>
</svg>
