<svg width="30" height="30" viewBox="0 0 30 30" fill="none" xmlns="http://www.w3.org/2000/svg">
<path d="M24.375 5.5097H23.4375V3.86532C23.4375 3.58459 23.3744 3.30744 23.2529 3.05434C23.1315 2.80124 22.9547 2.57864 22.7358 2.40297C22.5168 2.22731 22.2611 2.10305 21.9877 2.03939C21.7143 1.97573 21.4301 1.97427 21.156 2.03513L5.43337 5.52901C4.22663 5.57722 3.08516 6.08979 2.24739 6.95968C1.40961 7.82956 0.940309 8.98949 0.9375 10.1972V23.3222C0.938791 24.565 1.43307 25.7565 2.31186 26.6353C3.19066 27.5141 4.38219 28.0084 5.625 28.0097H24.375C25.6178 28.0084 26.8093 27.5141 27.6881 26.6353C28.5669 25.7565 29.0612 24.565 29.0625 23.3222V10.1972C29.0612 8.95439 28.5669 7.76286 27.6881 6.88406C26.8093 6.00526 25.6178 5.51099 24.375 5.5097ZM21.5625 3.86532V5.5097H14.1651L21.5625 3.86532ZM24.375 26.1347H5.625C4.87934 26.1339 4.16446 25.8373 3.63719 25.31C3.10993 24.7827 2.81334 24.0679 2.8125 23.3222V10.1972C2.81329 9.45152 3.10987 8.73661 3.63714 8.20934C4.16441 7.68206 4.87932 7.38549 5.625 7.3847H24.375C25.1207 7.38549 25.8356 7.68206 26.3629 8.20934C26.8901 8.73661 27.1867 9.45152 27.1875 10.1972V11.1347H25.3125C23.8207 11.1347 22.3899 11.7273 21.335 12.7822C20.2801 13.8371 19.6875 15.2679 19.6875 16.7597C19.6875 18.2515 20.2801 19.6823 21.335 20.7372C22.3899 21.7921 23.8207 22.3847 25.3125 22.3847H27.1875V23.3222C27.1867 24.0679 26.8901 24.7827 26.3628 25.31C25.8355 25.8373 25.1207 26.1339 24.375 26.1347ZM27.1875 20.5097H25.3125C24.3179 20.5097 23.3641 20.1146 22.6609 19.4113C21.9576 18.7081 21.5625 17.7543 21.5625 16.7597C21.5625 15.7651 21.9576 14.8113 22.6609 14.108C23.3641 13.4048 24.3179 13.0097 25.3125 13.0097H27.1875V20.5097Z" fill="white"/>
<path d="M5.625 11.1347C5.37636 11.1347 5.1379 11.2334 4.96209 11.4093C4.78627 11.5851 4.6875 11.8235 4.6875 12.0722V21.4472C4.6875 21.6958 4.78627 21.9343 4.96209 22.1101C5.1379 22.2859 5.37636 22.3847 5.625 22.3847C5.87364 22.3847 6.1121 22.2859 6.28791 22.1101C6.46373 21.9343 6.5625 21.6958 6.5625 21.4472V12.0722C6.5625 11.8235 6.46373 11.5851 6.28791 11.4093C6.1121 11.2334 5.87364 11.1347 5.625 11.1347Z" fill="white"/>
</svg>
