<svg width="30" height="30" viewBox="0 0 30 30" fill="none" xmlns="http://www.w3.org/2000/svg">
<path d="M22.5769 4.68753H19.5927C19.3764 3.62909 18.8012 2.67784 17.9643 1.99467C17.1275 1.3115 16.0803 0.938354 15 0.938354C13.9197 0.938354 12.8726 1.3115 12.0357 1.99467C11.1989 2.67784 10.6237 3.62909 10.4074 4.68753H7.42315C6.69693 4.68571 5.99828 4.96554 5.47412 5.4682C4.94995 5.97086 4.64111 6.65718 4.61253 7.38284L3.83159 26.1328C3.81563 26.5118 3.87652 26.8901 4.01059 27.2449C4.14466 27.5997 4.34915 27.9237 4.61174 28.1974C4.87433 28.4712 5.18958 28.6889 5.53854 28.8376C5.88749 28.9862 6.26292 29.0628 6.64222 29.0625H23.3578C23.7371 29.0627 24.1124 28.9861 24.4613 28.8374C24.8102 28.6886 25.1253 28.4709 25.3878 28.1972C25.6503 27.9235 25.8548 27.5995 25.9888 27.2447C26.1228 26.89 26.1837 26.5117 26.1677 26.1328L25.3868 7.38284C25.3582 6.6573 25.0495 5.9711 24.5255 5.46846C24.0015 4.96582 23.303 4.6859 22.5769 4.68753ZM12.1875 6.56253H17.8125V8.43753H12.1875V6.56253ZM15 2.81253C15.5798 2.81435 16.1447 2.99554 16.6174 3.33126C17.09 3.66697 17.4472 4.14074 17.6398 4.68753H12.3602C12.5529 4.14074 12.91 3.66697 13.3827 3.33126C13.8553 2.99554 14.4203 2.81435 15 2.81253ZM7.42315 6.56253H10.3125V9.37503C10.3125 9.62367 10.4113 9.86213 10.5871 10.0379C10.7629 10.2138 11.0014 10.3125 11.25 10.3125H18.75C18.9987 10.3125 19.2371 10.2138 19.4129 10.0379C19.5888 9.86213 19.6875 9.62367 19.6875 9.37503V6.56253H22.5769C22.819 6.5621 23.0518 6.65554 23.2265 6.82319C23.4011 6.99085 23.504 7.21968 23.5135 7.46159L24.0227 19.6875H5.97734L6.48753 7.46253C6.49675 7.22061 6.59938 6.99169 6.77385 6.82386C6.94833 6.65602 7.18106 6.56236 7.42315 6.56253ZM24.0345 26.8982C23.9474 26.9901 23.8425 27.0631 23.7261 27.1129C23.6097 27.1626 23.4844 27.188 23.3578 27.1875H6.64222C6.51596 27.1875 6.39101 27.162 6.27486 27.1125C6.15872 27.063 6.05376 26.9905 5.9663 26.8995C5.87884 26.8084 5.81067 26.7006 5.76588 26.5826C5.72109 26.4646 5.7006 26.3387 5.70565 26.2125L5.89915 21.5625H24.1009L24.2944 26.2125C24.3001 26.3385 24.28 26.4643 24.2353 26.5822C24.1906 26.7001 24.1223 26.8077 24.0345 26.8982Z" fill="white"/>
</svg>
