<svg width="30" height="30" viewBox="0 0 30 30" fill="none" xmlns="http://www.w3.org/2000/svg">
<g clip-path="url(#clip0_14_1001)">
<path d="M15 0.9375C12.2187 0.9375 9.49987 1.76225 7.1873 3.30746C4.87473 4.85267 3.07231 7.04893 2.00795 9.61851C0.943593 12.1881 0.665109 15.0156 1.20771 17.7435C1.75032 20.4713 3.08964 22.977 5.05632 24.9437C7.02299 26.9104 9.52869 28.2497 12.2565 28.7923C14.9844 29.3349 17.8119 29.0564 20.3815 27.9921C22.9511 26.9277 25.1473 25.1253 26.6925 22.8127C28.2378 20.5001 29.0625 17.7813 29.0625 15C29.0584 11.2717 27.5755 7.6972 24.9391 5.06086C22.3028 2.42452 18.7283 0.941619 15 0.9375ZM15 27.1875C12.5895 27.1875 10.2332 26.4727 8.22899 25.1335C6.22477 23.7944 4.66267 21.8909 3.74022 19.664C2.81778 17.437 2.57643 14.9865 3.04669 12.6223C3.51694 10.2582 4.67769 8.08659 6.38214 6.38214C8.08659 4.67768 10.2582 3.51694 12.6223 3.04668C14.9865 2.57642 17.437 2.81778 19.664 3.74022C21.8909 4.66266 23.7944 6.22476 25.1335 8.22899C26.4727 10.2332 27.1875 12.5895 27.1875 15C27.1838 18.2312 25.8986 21.329 23.6138 23.6138C21.329 25.8985 18.2312 27.1838 15 27.1875Z" fill="white"/>
<path d="M12.5006 10.9378H20.0006C20.2492 10.9378 20.4877 10.839 20.6635 10.6632C20.8393 10.4874 20.9381 10.249 20.9381 10.0003C20.9381 9.75167 20.8393 9.51322 20.6635 9.3374C20.4877 9.16158 20.2492 9.06281 20.0006 9.06281H15.9375V7.5C15.9375 7.25136 15.8387 7.0129 15.6629 6.83709C15.4871 6.66127 15.2486 6.5625 15 6.5625C14.7513 6.5625 14.5129 6.66127 14.3371 6.83709C14.1613 7.0129 14.0625 7.25136 14.0625 7.5V9.06281H12.5006C12.0471 9.05946 11.5974 9.1459 11.1774 9.31714C10.7574 9.48838 10.3755 9.74104 10.0536 10.0606C9.73169 10.3801 9.47621 10.7601 9.30187 11.1788C9.12754 11.5975 9.03778 12.0466 9.03778 12.5002C9.03778 12.9537 9.12754 13.4028 9.30187 13.8215C9.47621 14.2402 9.73169 14.6202 10.0536 14.9398C10.3755 15.2593 10.7574 15.5119 11.1774 15.6832C11.5974 15.8544 12.0471 15.9408 12.5006 15.9375H17.4994C17.706 15.9352 17.911 15.974 18.1025 16.0515C18.294 16.129 18.4683 16.2437 18.6152 16.389C18.7621 16.5343 18.8787 16.7073 18.9583 16.898C19.0379 17.0887 19.0789 17.2932 19.0789 17.4998C19.0789 17.7065 19.0379 17.911 18.9583 18.1017C18.8787 18.2924 18.7621 18.4654 18.6152 18.6107C18.4683 18.756 18.294 18.8707 18.1025 18.9482C17.911 19.0257 17.706 19.0645 17.4994 19.0622H9.99936C9.75071 19.0622 9.51226 19.161 9.33644 19.3368C9.16063 19.5126 9.06186 19.751 9.06186 19.9997C9.06186 20.2483 9.16063 20.4868 9.33644 20.6626C9.51226 20.8384 9.75071 20.9372 9.99936 20.9372H14.0625V22.5C14.0625 22.7486 14.1613 22.9871 14.3371 23.1629C14.5129 23.3387 14.7513 23.4375 15 23.4375C15.2486 23.4375 15.4871 23.3387 15.6629 23.1629C15.8387 22.9871 15.9375 22.7486 15.9375 22.5V20.9372H17.4994C17.9529 20.9405 18.4026 20.8541 18.8226 20.6829C19.2426 20.5116 19.6245 20.259 19.9464 19.9394C20.2683 19.6199 20.5237 19.2399 20.6981 18.8212C20.8724 18.4025 20.9622 17.9534 20.9622 17.4998C20.9622 17.0463 20.8724 16.5972 20.6981 16.1785C20.5237 15.7598 20.2683 15.3798 19.9464 15.0602C19.6245 14.7407 19.2426 14.4881 18.8226 14.3168C18.4026 14.1456 17.9529 14.0592 17.4994 14.0625H12.5006C12.294 14.0648 12.089 14.026 11.8974 13.9485C11.7059 13.871 11.5316 13.7563 11.3847 13.611C11.2378 13.4657 11.1212 13.2927 11.0416 13.102C10.962 12.9113 10.9211 12.7068 10.9211 12.5002C10.9211 12.2935 10.962 12.089 11.0416 11.8983C11.1212 11.7076 11.2378 11.5346 11.3847 11.3893C11.5316 11.244 11.7059 11.1293 11.8974 11.0518C12.089 10.9743 12.294 10.9355 12.5006 10.9378Z" fill="white"/>
</g>
<defs>
<clipPath id="clip0_14_1001">
<rect width="30" height="30" fill="white"/>
</clipPath>
</defs>
</svg>
